<svg height="512" viewBox="0 0 512 512" width="512" xmlns="http://www.w3.org/2000/svg"><path d="m392 512h-272v-360l136-72.944 136 72.944z" fill="#f7f4f0"/><path d="m120 458.032v53.968h272v-318.027c-29.348 133.906-136.682 238.595-272 264.059z" fill="#dedddc"/><path d="m168 480a8 8 0 0 1 -8-8v-16a8 8 0 0 1 16 0v16a8 8 0 0 1 -8 8zm0-48a8 8 0 0 1 -8-8v-16a8 8 0 0 1 16 0v16a8 8 0 0 1 -8 8z" fill="#efc465"/><path d="m344 480a8 8 0 0 1 -8-8v-16a8 8 0 0 1 16 0v16a8 8 0 0 1 -8 8zm0-48a8 8 0 0 1 -8-8v-16a8 8 0 0 1 16 0v16a8 8 0 0 1 -8 8z" fill="#efc465"/><path d="m168 192a8 8 0 0 1 -8-8v-16a8 8 0 0 1 16 0v16a8 8 0 0 1 -8 8z" fill="#efc465"/><path d="m344 192a8 8 0 0 1 -8-8v-16a8 8 0 0 1 16 0v16a8 8 0 0 1 -8 8z" fill="#efc465"/><path d="m127.667 272h-111.667v-72.016l56.021-65.358 55.646 65.374z" fill="#ebe9e6"/><path d="m40 248a88.058 88.058 0 0 1 -24-3.314v27.314h111.667v-72l-6.034-7.089a88.024 88.024 0 0 1 -81.633 55.089z" fill="#dedddc"/><path d="m495.833 272h-111.666v-72.016l56.021-65.358 55.645 65.374z" fill="#ebe9e6"/><path d="m408.167 248a88.053 88.053 0 0 1 -24-3.314v27.314h111.666v-72l-6.033-7.089a88.025 88.025 0 0 1 -81.633 55.089z" fill="#dedddc"/><circle cx="256" cy="176" fill="#6d6962" r="56"/><path d="m288 360h-64v-48a67.8 67.8 0 0 1 27.563-54.656l4.437-2.959 4.438 2.959a67.8 67.8 0 0 1 27.562 54.656z" fill="#6d6962"/><path d="m284 24h-20v-16a8 8 0 0 0 -16 0v16h-20a8 8 0 0 0 0 16h20v40a8 8 0 0 0 16 0v-40h20a8 8 0 0 0 0-16z" fill="#cca256"/><path d="m100 88h-20v-16a8 8 0 0 0 -16 0v16h-20a8 8 0 0 0 0 16h20v32a8 8 0 0 0 16 0v-32h20a8 8 0 0 0 0-16z" fill="#cca256"/><path d="m136 216a7.978 7.978 0 0 1 -5.982-2.686l-58.018-65.272-58.021 65.272a8 8 0 0 1 -11.958-10.628l69.979-78.728 69.979 78.728a8 8 0 0 1 -5.979 13.314z" fill="#efc465"/><path d="m0 256h144v256h-144z" fill="#ebe9e6"/><path d="m96 240h-48v-17.373a62.219 62.219 0 0 1 18.343-44.284l5.657-5.656 5.657 5.656a62.219 62.219 0 0 1 18.343 44.284z" fill="#6d6962"/><path d="m104 376h-64v-27.155a61.773 61.773 0 0 1 27.563-51.5l4.437-2.96 4.438 2.959a61.775 61.775 0 0 1 27.562 51.501z" fill="#6d6962"/><path d="m468 88h-20v-16a8 8 0 0 0 -16 0v16h-20a8 8 0 0 0 0 16h20v32a8 8 0 0 0 16 0v-32h20a8 8 0 0 0 0-16z" fill="#cca256"/><path d="m504 216a7.978 7.978 0 0 1 -5.982-2.686l-58.018-65.272-58.021 65.272a8 8 0 0 1 -11.958-10.628l69.979-78.728 69.979 78.728a8 8 0 0 1 -5.979 13.314z" fill="#efc465"/><path d="m368 256h144v256h-144z" fill="#ebe9e6"/><path d="m464 240h-48v-17.373a62.219 62.219 0 0 1 18.343-44.284l5.657-5.656 5.657 5.656a62.219 62.219 0 0 1 18.343 44.284z" fill="#6d6962"/><path d="m472 376h-64v-27.155a61.773 61.773 0 0 1 27.563-51.5l4.437-2.96 4.438 2.959a61.775 61.775 0 0 1 27.562 51.501z" fill="#6d6962"/><g fill="#efc465"><path d="m40 304a7.452 7.452 0 0 1 -1.561-.16 7.893 7.893 0 0 1 -1.5-.45 8.06 8.06 0 0 1 -1.379-.741 8.369 8.369 0 0 1 -1.22-.989 8.052 8.052 0 0 1 -2.34-5.66 7.452 7.452 0 0 1 .16-1.561 7.963 7.963 0 0 1 .449-1.5 8.06 8.06 0 0 1 .741-1.379 7.589 7.589 0 0 1 2.21-2.21 8.06 8.06 0 0 1 1.379-.741 7.963 7.963 0 0 1 1.5-.449 8.054 8.054 0 0 1 7.221 2.18 8.369 8.369 0 0 1 .989 1.22 8.06 8.06 0 0 1 .741 1.379 7.893 7.893 0 0 1 .45 1.5 7.452 7.452 0 0 1 .16 1.561 8.056 8.056 0 0 1 -2.34 5.66 8.324 8.324 0 0 1 -1.221.989 7.986 7.986 0 0 1 -1.379.741 7.871 7.871 0 0 1 -1.5.45 7.443 7.443 0 0 1 -1.56.16z"/><path d="m408 304a7.452 7.452 0 0 1 -1.561-.16 7.893 7.893 0 0 1 -1.5-.45 8.06 8.06 0 0 1 -1.379-.741 8.369 8.369 0 0 1 -1.22-.989 7.728 7.728 0 0 1 -.99-1.221 7.755 7.755 0 0 1 -1.19-2.879 7.69 7.69 0 0 1 0-3.121 7.963 7.963 0 0 1 .449-1.5 8.06 8.06 0 0 1 .741-1.379 7.766 7.766 0 0 1 .99-1.22 8.31 8.31 0 0 1 1.22-.99 8.06 8.06 0 0 1 1.379-.741 7.963 7.963 0 0 1 1.5-.449 7.809 7.809 0 0 1 3.121 0 7.755 7.755 0 0 1 2.879 1.19 8.266 8.266 0 0 1 1.221.99 7.817 7.817 0 0 1 .989 1.22 8.06 8.06 0 0 1 .741 1.379 7.893 7.893 0 0 1 .45 1.5 7.69 7.69 0 0 1 0 3.121 7.871 7.871 0 0 1 -.45 1.5 7.986 7.986 0 0 1 -.741 1.379 7.778 7.778 0 0 1 -.989 1.221 8.324 8.324 0 0 1 -1.221.989 7.986 7.986 0 0 1 -1.379.741 7.871 7.871 0 0 1 -1.5.45 7.443 7.443 0 0 1 -1.56.16z"/><path d="m472 304a7.452 7.452 0 0 1 -1.561-.16 7.893 7.893 0 0 1 -1.5-.45 8.06 8.06 0 0 1 -1.379-.741 8.369 8.369 0 0 1 -1.22-.989 7.728 7.728 0 0 1 -.99-1.221 7.755 7.755 0 0 1 -1.19-2.879 7.69 7.69 0 0 1 0-3.121 7.963 7.963 0 0 1 .449-1.5 8.06 8.06 0 0 1 .741-1.379 7.589 7.589 0 0 1 2.21-2.21 8.06 8.06 0 0 1 1.379-.741 7.963 7.963 0 0 1 1.5-.449 8.073 8.073 0 0 1 7.221 2.18 7.817 7.817 0 0 1 .989 1.22 8.06 8.06 0 0 1 .741 1.379 7.893 7.893 0 0 1 .45 1.5 7.69 7.69 0 0 1 0 3.121 7.871 7.871 0 0 1 -.45 1.5 7.986 7.986 0 0 1 -.741 1.379 7.778 7.778 0 0 1 -.989 1.221 8.324 8.324 0 0 1 -1.221.989 7.986 7.986 0 0 1 -1.379.741 7.871 7.871 0 0 1 -1.5.45 7.443 7.443 0 0 1 -1.56.16z"/><path d="m408 408a7.452 7.452 0 0 1 -1.561-.16 7.893 7.893 0 0 1 -1.5-.45 8.06 8.06 0 0 1 -1.379-.741 7.817 7.817 0 0 1 -1.22-.989 7.728 7.728 0 0 1 -.99-1.221 7.755 7.755 0 0 1 -1.19-2.879 7.69 7.69 0 0 1 0-3.121 7.963 7.963 0 0 1 .449-1.5 8.06 8.06 0 0 1 .741-1.379 7.589 7.589 0 0 1 2.21-2.21 8.06 8.06 0 0 1 1.379-.741 7.963 7.963 0 0 1 1.5-.449 8.046 8.046 0 0 1 7.221 2.18 7.817 7.817 0 0 1 .989 1.22 8.06 8.06 0 0 1 .741 1.379 7.893 7.893 0 0 1 .45 1.5 7.69 7.69 0 0 1 0 3.121 7.871 7.871 0 0 1 -.45 1.5 7.986 7.986 0 0 1 -.741 1.379 7.525 7.525 0 0 1 -2.21 2.21 7.986 7.986 0 0 1 -1.379.741 7.871 7.871 0 0 1 -1.5.45 7.443 7.443 0 0 1 -1.56.16z"/><path d="m472 408a7.452 7.452 0 0 1 -1.561-.16 7.893 7.893 0 0 1 -1.5-.45 8.06 8.06 0 0 1 -1.379-.741 8.369 8.369 0 0 1 -1.22-.989 7.728 7.728 0 0 1 -.99-1.221 7.755 7.755 0 0 1 -1.19-2.879 7.69 7.69 0 0 1 0-3.121 7.963 7.963 0 0 1 .449-1.5 8.06 8.06 0 0 1 .741-1.379 7.589 7.589 0 0 1 2.21-2.21 8.06 8.06 0 0 1 1.379-.741 7.963 7.963 0 0 1 1.5-.449 8.073 8.073 0 0 1 7.221 2.18 7.817 7.817 0 0 1 .989 1.22 8.06 8.06 0 0 1 .741 1.379 7.893 7.893 0 0 1 .45 1.5 7.69 7.69 0 0 1 0 3.121 7.871 7.871 0 0 1 -.45 1.5 7.986 7.986 0 0 1 -.741 1.379 7.778 7.778 0 0 1 -.989 1.221 8.324 8.324 0 0 1 -1.221.989 7.986 7.986 0 0 1 -1.379.741 7.871 7.871 0 0 1 -1.5.45 7.443 7.443 0 0 1 -1.56.16z"/><path d="m40 408a8 8 0 1 1 1.56-15.84 7.755 7.755 0 0 1 2.879 1.19 7.728 7.728 0 0 1 1.221.99 8 8 0 0 1 -5.66 13.66z"/><path d="m104 408a7.452 7.452 0 0 1 -1.561-.16 7.893 7.893 0 0 1 -1.5-.45 8.06 8.06 0 0 1 -1.379-.741 8.369 8.369 0 0 1 -1.22-.989 8 8 0 0 1 11.32-11.32 8.369 8.369 0 0 1 .989 1.22 8.06 8.06 0 0 1 .741 1.379 7.893 7.893 0 0 1 .45 1.5 7.69 7.69 0 0 1 0 3.121 7.871 7.871 0 0 1 -.45 1.5 7.986 7.986 0 0 1 -.741 1.379 7.525 7.525 0 0 1 -2.21 2.21 7.986 7.986 0 0 1 -1.379.741 7.871 7.871 0 0 1 -1.5.45 7.443 7.443 0 0 1 -1.56.16z"/><path d="m104 304a7.452 7.452 0 0 1 -1.561-.16 7.893 7.893 0 0 1 -1.5-.45 8.06 8.06 0 0 1 -1.379-.741 8.369 8.369 0 0 1 -1.22-.989 8.052 8.052 0 0 1 -2.34-5.66 7.452 7.452 0 0 1 .16-1.561 7.963 7.963 0 0 1 .449-1.5 8.06 8.06 0 0 1 .741-1.379 7.589 7.589 0 0 1 2.21-2.21 8.06 8.06 0 0 1 1.379-.741 7.963 7.963 0 0 1 1.5-.449 7.809 7.809 0 0 1 3.121 0 7.755 7.755 0 0 1 2.879 1.19 7.728 7.728 0 0 1 1.221.99 8.369 8.369 0 0 1 .989 1.22 8.06 8.06 0 0 1 .741 1.379 7.893 7.893 0 0 1 .45 1.5 7.452 7.452 0 0 1 .16 1.561 8.056 8.056 0 0 1 -2.34 5.66 8.324 8.324 0 0 1 -1.221.989 7.986 7.986 0 0 1 -1.379.741 7.871 7.871 0 0 1 -1.5.45 7.443 7.443 0 0 1 -1.56.16z"/><path d="m391.993 160a7.959 7.959 0 0 1 -3.736-.932l-132.257-70.016-132.257 70.018a8 8 0 1 1 -7.486-14.14l139.743-73.982 139.743 73.982a8 8 0 0 1 -3.75 15.07z"/></g><path d="m352 344h-48v-40c0-34.912 17.594-52.908 18.343-53.657l5.657-5.656 5.657 5.656c.749.749 18.343 18.745 18.343 53.657z" fill="#6d6962"/><path d="m208 344h-48v-40c0-34.912 17.594-52.908 18.343-53.657l5.657-5.656 5.657 5.656c.749.749 18.343 18.745 18.343 53.657z" fill="#6d6962"/><path d="m0 493.719v18.281h144v-188a172.037 172.037 0 0 1 -144 169.719z" fill="#dedddc"/><path d="m368 493.719v18.281h144v-188a172.037 172.037 0 0 1 -144 169.719z" fill="#dedddc"/><path d="m104 480h-64v-27.155a61.773 61.773 0 0 1 27.563-51.5l4.437-2.96 4.438 2.959a61.775 61.775 0 0 1 27.562 51.501z" fill="#6d6962"/><path d="m472 480h-64v-27.155a61.773 61.773 0 0 1 27.563-51.5l4.437-2.96 4.438 2.959a61.775 61.775 0 0 1 27.562 51.501z" fill="#6d6962"/><path d="m280 152a71.562 71.562 0 0 1 29.066 6.15 55.986 55.986 0 1 0 -99.186 49.565 72.11 72.11 0 0 1 70.12-55.715z" fill="#5e5b56"/><path d="m288 360h-64v-48a67.8 67.8 0 0 1 27.563-54.656l4.437-2.959 4.438 2.959a67.8 67.8 0 0 1 27.562 54.656z" fill="#5e5b56"/><path d="m352 344h-48v-40c0-34.912 17.594-52.908 18.343-53.657l5.657-5.656 5.657 5.656c.749.749 18.343 18.745 18.343 53.657z" fill="#5e5b56"/><path d="m208 344h-48v-40c0-34.912 17.594-52.908 18.343-53.657l5.657-5.656 5.657 5.656c.749.749 18.343 18.745 18.343 53.657z" fill="#5e5b56"/><path d="m264 120.581a55.368 55.368 0 0 0 -16 0v47.419h-47.419a55.368 55.368 0 0 0 0 16h47.419v47.419a55.368 55.368 0 0 0 16 0v-47.419h47.419a55.368 55.368 0 0 0 0-16h-47.419z" fill="#cca256"/><path d="m89.848 195.5a62.706 62.706 0 0 0 -12.191-17.159l-5.657-5.654-5.657 5.656a62.219 62.219 0 0 0 -18.343 44.284v8.452a72.342 72.342 0 0 1 41.848-35.579z" fill="#5e5b56"/><path d="m457.848 195.5a62.706 62.706 0 0 0 -12.191-17.159l-5.657-5.654-5.657 5.656a62.219 62.219 0 0 0 -18.343 44.284v8.452a72.342 72.342 0 0 1 41.848-35.579z" fill="#5e5b56"/><path d="m97.057 320.341a61.838 61.838 0 0 0 -20.619-23l-4.438-2.956-4.437 2.959a61.773 61.773 0 0 0 -27.563 51.501v10.234a72.123 72.123 0 0 1 57.057-38.738z" fill="#5e5b56"/><path d="m465.057 320.341a61.838 61.838 0 0 0 -20.619-23l-4.438-2.956-4.437 2.959a61.773 61.773 0 0 0 -27.563 51.501v10.234a72.123 72.123 0 0 1 57.057-38.738z" fill="#5e5b56"/><path d="m97.057 424.341a61.838 61.838 0 0 0 -20.619-23l-4.438-2.956-4.437 2.959a61.773 61.773 0 0 0 -27.563 51.501v10.234a72.123 72.123 0 0 1 57.057-38.738z" fill="#5e5b56"/><path d="m465.057 424.341a61.838 61.838 0 0 0 -20.619-23l-4.438-2.956-4.437 2.959a61.773 61.773 0 0 0 -27.563 51.501v10.234a72.123 72.123 0 0 1 57.057-38.738z" fill="#5e5b56"/><path d="m320 512h-128v-112c0-15.537 10.534-31.04 31.31-46.078a184.625 184.625 0 0 1 29.421-17.222l3.269-1.466 3.269 1.464a184.625 184.625 0 0 1 29.421 17.224c20.776 15.038 31.31 30.541 31.31 46.078z" fill="#cca256"/><path d="m288 512h-64v-96a32 32 0 0 1 64 0z" fill="#efc465"/><path d="m284.55 401.575a31.991 31.991 0 0 0 -60.55 14.425v60a76.024 76.024 0 0 1 60.55-74.425z" fill="#e2b65d"/><path d="m284.222 289.5a67.911 67.911 0 0 0 -23.784-32.157l-4.438-2.958-4.437 2.959a67.8 67.8 0 0 0 -27.563 54.656v24.209a84.105 84.105 0 0 1 60.222-46.709z" fill="#4c4945"/><path d="m203.484 274.983c-5.268-15.884-13.325-24.139-13.827-24.64l-5.657-5.656-5.657 5.656c-.749.749-18.343 18.745-18.343 53.657v7.028a72.159 72.159 0 0 1 43.484-36.045z" fill="#4c4945"/><path d="m347.484 274.983c-5.268-15.884-13.325-24.139-13.827-24.64l-5.657-5.656-5.657 5.656c-.749.749-18.343 18.745-18.343 53.657v7.028a72.159 72.159 0 0 1 43.484-36.045z" fill="#4c4945"/><circle cx="256" cy="360" fill="#f7eacd" r="12"/><circle cx="228" cy="148" fill="#a39e95" r="12"/><circle cx="80" cy="220" fill="#a39e95" r="8"/><circle cx="448" cy="220" fill="#a39e95" r="8"/><circle cx="80" cy="344" fill="#a39e95" r="8"/><circle cx="448" cy="344" fill="#a39e95" r="8"/><circle cx="80" cy="448" fill="#a39e95" r="8"/><circle cx="448" cy="448" fill="#a39e95" r="8"/><circle cx="288" cy="376" fill="#f7eacd" r="8"/></svg>