<svg height="464pt" viewBox="0 0 464 464" width="464pt" xmlns="http://www.w3.org/2000/svg"><path d="m464 464h-464v-232l232-192 232 192zm0 0" fill="#ffa230"/><path d="m48 24v392h368v-392c0-13.253906-10.746094-24-24-24h-320c-13.253906 0-24 10.746094-24 24zm0 0" fill="#4398d1"/><path d="m48 312v104h368v-392c0-13.253906-10.746094-24-24-24h-32zm0 0" fill="#3e8cc7"/><path d="m0 232 184 112h96l184-112v232h-464zm0 0" fill="#fdb62f"/><path d="m0 464 184-120h96l184 120zm0 0" fill="#ffc24f"/><path d="m280 232.335938-112-40v-80l112-40zm0 0" fill="#e0e3e6"/><path d="m128 112.335938h40v80h-40c-22.089844 0-40-17.910157-40-40 0-22.089844 17.910156-40 40-40zm0 0" fill="#e3584b"/><path d="m93.640625 132.167969c-7.375 12.320312-7.53125 27.660156-.410156 40.128906 7.117187 12.46875 20.410156 20.128906 34.769531 20.039063h40v-40.335938h-40c-14.164062-.03125-27.246094-7.582031-34.359375-19.832031zm0 0" fill="#d64740"/><path d="m120 192.335938h32v64h-32zm0 0" fill="#e0e3e6"/><g fill="#53a8e0"><path d="m336 144.335938h40v16h-40zm0 0"/><path d="m333.125 80.253906 40-15.386718 5.742188 14.925781-40 15.386719zm0 0"/><path d="m333.128906 224.417969 5.742188-14.933594 40 15.382813-5.742188 14.933593zm0 0"/></g><path d="m296.335938 264c-4.300782.089844-8.457032-1.554688-11.53125-4.566406-3.074219-3.011719-4.804688-7.132813-4.804688-11.433594v-191.664062c0-8.835938 7.164062-16 16-16s16 7.164062 16 16v191.664062c0 8.707031-6.957031 15.816406-15.664062 16zm0 0" fill="#e3584b"/><path d="m168 152v40.335938l112 40v-80.335938zm0 0" fill="#c7cacc"/><path d="m296.335938 207.65625c-4.300782.089844-8.457032-1.554688-11.53125-4.566406-3.074219-3.011719-4.804688-7.132813-4.804688-11.433594v56.34375c0 4.300781 1.730469 8.421875 4.804688 11.433594 3.074218 3.011718 7.230468 4.65625 11.53125 4.566406 8.707031-.183594 15.664062-7.292969 15.664062-16v-56.335938c-.003906 8.703126-6.960938 15.808594-15.664062 15.992188zm0 0" fill="#d64740"/><path d="m72 24h16v16h-16zm0 0" fill="#126099"/><path d="m104 24h16v16h-16zm0 0" fill="#126099"/><path d="m136 24h16v16h-16zm0 0" fill="#126099"/></svg>